<?xml version="1.0" encoding="UTF-8"?>
<svg id="Camada_2" data-name="Camada 2" xmlns="http://www.w3.org/2000/svg" viewBox="0 0 372 106.48">
  <defs>
    <style>
      .cls-1 {
        fill: #2c4a3b;
      }

      .cls-2 {
        fill: #f3f0db;
      }

      .cls-3 {
        fill: #0a1d22;
      }

      .cls-4 {
        fill: #f8f9f9;
      }

      .cls-5 {
        fill: #f4c02b;
      }

      .cls-6 {
        fill: #b57302;
      }

      .cls-7 {
        fill: #c2c2bc;
      }

      .cls-8 {
        fill: #b8b8b2;
      }

      .cls-9 {
        fill: #d98e04;
      }
    </style>
  </defs>
  <g id="Camada_1-2" data-name="Camada 1">
    <rect class="cls-1" y="24.48" width="372" height="82"/>
    <path class="cls-9" d="M228.51,30.48c5.69-.83,11.38-1.42,17.06-2.02,10.75.02,40.05.02,51.19.02,11.24,0,40.31,0,51.19,0,5.69.61,11.38,1.2,17.06,2-5.69.8-11.38,1.39-17.06,2-10.75,0-40.05,0-51.19,0-11.24,0-40.31,0-51.19.02-5.69-.6-11.38-1.19-17.06-2.02h0Z"/>
    <path class="cls-9" d="M7.51,30.48c5.69-.83,11.38-1.42,17.06-2.02,10.75.02,40.05.02,51.19.02,11.24,0,40.31,0,51.19,0,5.69.61,11.38,1.2,17.06,2-5.69.8-11.38,1.39-17.06,2-10.75,0-40.05,0-51.19,0-11.24,0-40.31,0-51.19.02-5.69-.6-11.38-1.19-17.06-2.02h0Z"/>
    <path class="cls-9" d="M228.51,100.48c5.69-.83,11.38-1.42,17.06-2.02,10.75.02,40.05.02,51.19.02,11.24,0,40.31,0,51.19,0,5.69.61,11.38,1.2,17.06,2-5.69.8-11.38,1.39-17.06,2-10.75,0-40.05,0-51.19,0-11.24,0-40.31,0-51.19.02-5.69-.6-11.38-1.19-17.06-2.02h0Z"/>
    <path class="cls-9" d="M7.51,100.48c5.69-.83,11.38-1.42,17.06-2.02,10.75.02,40.05.02,51.19.02,11.24,0,40.31,0,51.19,0,5.69.61,11.38,1.2,17.06,2-5.69.8-11.38,1.39-17.06,2-10.75,0-40.05,0-51.19,0-11.24,0-40.31,0-51.19.02-5.69-.6-11.38-1.19-17.06-2.02h0Z"/>
    <g>
      <path class="cls-2" d="M363.56,61.48c-1.08.93-.92,2.61.26,3.42,2.66,1.81,3.69,4.6,4.19,8.14,1.13,7.94-1.19,13.01-8.77,15.87-.25.09-.52.14-.78.14l-17.42-.05c-1.21,0-2.17-1.01-2.13-2.22.51-14.98-.49-30-1.64-44.96-.1-1.24.88-2.31,2.13-2.3,6.84.02,14.05-.74,20.62.92.17.04.34.1.49.18,5.42,2.71,7.58,10.28,6.44,15.88-.49,2.41-1.87,3.67-3.39,4.98ZM347.26,57.08c.02,1.21,1.03,2.16,2.24,2.11,2.66-.11,6.81-.76,7.31-1.36,1.37-1.65,1.32-7.43-.42-8.8-1.55-1.23-4.54-1.22-7.01-1.31-1.22-.04-2.23.94-2.22,2.17l.1,7.19ZM358.09,79.2c1.55-1.28,1.1-8.18-.18-9.45-1.53-1.52-5.06-1.64-7.73-1.65-1.13,0-2.05.87-2.14,2-.23,3.16-.07,8.96.61,9.47.45.34,8.99.01,9.44-.36Z"/>
      <path class="cls-2" d="M300.39,42.47c.03-.51.43-.9.94-.9,2.47-.02,7.22-.85,8.08.28s.41,11.45.5,13.66c.25,6.14.33,12.98.86,19.02.19,2.17.13,6.73,2.38,7.56,3.47,1.27,9.46.11,8.81-4.76l-.88-27.59c-.07-9.25-2.07-10.25,7.45-9.17.03,0,.05,0,.08-.01.56-.09.88-.47,1.32.24.33.54-.17,6.87-.12,8.38.35,10.33.74,20.67,1.18,31,.08,1.97-.46,3.92-1.6,5.53-7.94,11.29-26.43,7.91-27.63-7.82"/>
      <path class="cls-2" d="M277.82,41.55c1.33-.03,2.43,1.02,2.47,2.34l1.18,36.32c.29,1.01,1.25.94,2.08,1.08,1.43.24,7.46-.31,11-.38,1.3-.03,2.37.99,2.45,2.28.1,1.63.44,3.74.36,5.34-.06,1.3-1.14,2.32-2.45,2.31l-19.57-.2c-1.3-.01-2.36-1.05-2.4-2.34-.29-9.07-.24-18.21-.66-27.26-.25-5.43-.55-11.03-1.45-16.41-.23-1.38.76-2.67,2.16-2.79,1.52-.14,3.38-.27,4.83-.31Z"/>
    </g>
    <path class="cls-2" d="M140.81,90.11c-1.86-.13-3.73-.22-5.58-.1-1.19.07-2.22-.83-2.25-2.02-.08-2.91-.03-7.65-1.24-7.97-1.62-.43-5.4.24-8.01.29-1.08.02-2,.82-2.09,1.9-.24,2.78.28,7.15-.69,7.8-.29.2-4.8.38-7.68.31-1.28-.03-2.23-1.18-2.03-2.44l7.11-44.38c.16-.99.99-1.73,1.99-1.77,3.78-.15,9.91-1.68,11.99-.37,5.3,3.31,7.91,30.79,9.03,37.66.46,2.82.95,5.69,1.63,8.5.33,1.39-.77,2.69-2.19,2.59ZM128.01,52.48c-.98-4.1-1.75-.51-2.5,3.87-.66,3.86-1.84,7.63-2.02,11.58-.04.94-.59,1.76.48,2.1.32.1,5.91.26,6.19.11,1.31-.72-.93-8.06-1.13-9.66"/>
    <path class="cls-2" d="M46.19,45.36c-.23-1.31.76-2.52,2.09-2.56l21.4-.71c1.18-.04,2.18.86,2.27,2.04.1,1.32.16,3.02.17,4.37,0,1.2-.96,2.17-2.16,2.19-3.8.08-7.61.78-11.4.49-1.27-.1-2.32.91-2.32,2.18l-.04,7.14c0,1.29,1.1,2.31,2.39,2.2,2.2-.18,5.4-.53,7.43-.43,1.05.05,1.91.84,2.06,1.88.29,2.04.59,5.46.52,5.7-.23.83-.86.68-1.48.81-2.47.54-5.66.31-8.46.37-1.12.02-2.03.91-2.12,2.03-.17,2.06-.23,5.3-.1,7.36.07,1.12.99,2,2.12,2.04,4.21.14,8.52-.6,12.76-.16,1.16.12,2.02,1.1,1.99,2.26-.03,1.41.12,3.25.13,4.71.01,1.29-1.1,2.28-2.39,2.18-5.18-.4-10.54-.24-15.76-.19-.85,0-1.47.18-2.28.2-.98.03-2.18-.17-3.16-.11-1.84.11-2.87-.97-2.64-2.51.66-4.41-.36-9.15-.37-13.39"/>
    <path class="cls-2" d="M99.73,43.61c-.05-1.11.86-2.03,1.97-2.03h6.99c.65.01,1.14.61,1.01,1.25-3.24,15.77-7.08,31.4-12.15,46.71-.13.39-.38.73-.71.97l-.17.12c-.33.24-.72.37-1.12.38l-6.94.14c-.48.01-.91-.32-1.02-.79l-11.13-46.9c-.15-.61.29-1.21.91-1.26l8.7-.76.58.38,4.47,25.11s.01.06.02.09l.91,3.88c.24,1.05,1.73,1.07,2.01.03,1.77-6.6,2.51-13.42,3.9-20.09"/>
    <path class="cls-2" d="M38.42,57.17c-1.75,0-3.48.41-5.22.68-1.19.18-2.29-.72-2.27-1.92.07-6.62-9.58-7.17-10.35-.12-.01.11-.01.22-.01.33l.83,24.22c.03.77.89,2.84,1.61,3.11,2.32.86,7.35.53,8,0,.82-.67.36-3.36.3-4.67-.05-1.17.93-2.12,2.1-2.03,1.47.11,3.29-.03,4.64.02,1.03.04,1.84.88,1.88,1.91.15,4.33.6,6.29-3.28,9.73-4.02,3.56-10.1,4.52-15.18,2.99-13.24-3.98-8.97-19.03-9.25-29.64-.19-7.31-2.19-10.31,4.13-16.74,3.71-3.78,13.64-3.79,18.14-.95,3.32,2.1,5.69,6.92,5.94,11.05.07,1.12-.86,2.03-1.99,2.03Z"/>
    <path class="cls-2" d="M262.42,57.17c-1.75,0-3.48.41-5.22.68-1.19.18-2.29-.72-2.27-1.92.07-6.62-9.58-7.17-10.35-.12-.01.11-.01.22-.01.33l.83,24.22c.03.77.89,2.84,1.61,3.11,2.32.86,7.35.53,8,0,.82-.67.36-3.36.3-4.67-.05-1.17.93-2.12,2.1-2.03,1.47.11,3.29-.03,4.64.02,1.03.04,1.84.88,1.88,1.91.15,4.33.6,6.29-3.28,9.73-4.02,3.56-10.1,4.52-15.18,2.99-13.24-3.98-8.97-19.03-9.25-29.64-.19-7.31-2.19-10.31,4.13-16.74,3.71-3.78,13.64-3.79,18.14-.95,3.32,2.1,5.69,6.92,5.94,11.05.07,1.12-.86,2.03-1.99,2.03Z"/>
    <g>
      <path class="cls-3" d="M221.61,35.19c-3.05-1.5-6-1.79-9.37-1.89l-.93-5.03c1.14-1.47,2.55-2.93,3.13-4.77,1.12-3.57-.29-8.06-1.92-11.3-2.96-5.9-11.26-8.46-17-5.09-.77.45-1.26,1.1-2.19,1.47-.4.16-1.87.58-2.23.52-.4-.06-1-1.31-1.37-1.76-1.41-1.67-4.09-3-6.19-3.34-5.55-.89-9.81,1.51-12.4,6.37-7.52-4.57-16.47,2.07-15.64,10.54.2,2.08,1.67,3.24,1.82,4.04.34,1.78-.16,5.74-.39,7.67-.72,5.99-2.1,11.03-1.62,17.26.58,7.61,5.3,13.38,6.37,20.94,1.21,8.55.8,17.33.76,25.92,0,.45-.03,1.16,0,1.65.05.97.21,2.3.57,3.19.29.71,1.31,2.02,1.99,2.32,1.43.63,3.6.73,5.13.92.89.11,1.89.09,2.75.18,4.67.53,9.38,1.12,14.09,1.1,2.54,0,5.23-.26,7.75-.58,2.16-.27,8.74-1.24,10.28-2.36,1.71-1.25,1.63-2.12,1.74-4.04.04-.73-.01-1.47,0-2.2.09-4.58.03-9.23.19-13.84.03-.98-.21-3.7.02-4.38.12-.37,2.96-1.01,3.55-1.21,10.17-3.47,16.82-9.23,19.77-19.81,2.28-8.18-.71-18.6-8.66-22.51ZM211.69,59.08c.66-1.78,1.37-3.92,1.74-5.78.56-2.82.61-5.75.64-8.63,2.73-.05,4.67,1.49,5.63,3.99,2.77,7.21-3.79,15.38-10.57,17.29-.39-.44,2.21-5.91,2.56-6.87ZM158.96,17.25c1.22-3.93,5.87-6.29,9.65-4.34.92.48,1.27.79,1.48,1.82.11.54-.13,1.16.33,1.5.77.55,2.12-.14,3.01.01-.19-3.11.78-6.05,3.49-7.78,3.35-2.13,9.63-1.18,11.28,2.78.51,1.21-.25,1.64-.15,2.31.07.47,4.1.36,4.69.13.98-.39,1.54-1.7,2.15-2.33,4.12-4.25,13.56-2.66,14.58,3.42.48-.1.38.24.45.54.51,1.98,1.05,1.6,1.51,2.71.99,2.44.18,4.47-1.41,6.28-.04.04-.01.28-.19.45-2.36,2.28-5.23,2.36-7.13-.45-1.17-1.72-1.47-3.83-.92-5.87-.55.02-1.24.13-1.72.39-.81.45-1.31,1.78-1.84,2.01-.62.27-1.89.19-2.59.17-.36,0-.64-.18-.81-.19-.6-.04-1.22.03-1.83,0-.58,1.16-4.03,3.82-5.29,4.14-2.3.58-3.99-.02-5.87-1.21-1.19-.75-2.8-2.1-3.29-3.48-.33.58-1.05.63-1.65.73-4,.72-10.42.14-14.64,0-1.16-.04-2.32.03-3.48,0-.13-1.43-.26-2.36.18-3.77ZM206.2,63.94c-2.1,5.94-2.3,15.85-2.57,22.28-.14,3.32-.09,6.68-.18,10,.05.88.07,2.95-.22,3.73-.29.79-1.87.46-2.39.54-3.52.58-10.42,2.44-13.69,2.15-3.63.24-7.61-.07-11.24-.57-1.65-.23-3.16-.85-4.87-.9-.28,0-.74-.06-.97,0-.26.07-.04.66-1.23.55-.33-.03-.8-.23-.92-.55-1.01.02-1.23-.63-1.65-1.28-.3-.47-.47-.36-.55-1.19-.44-4.81.02-10.62-.18-15.6-.2-5.24-.34-12.31-1.79-17.28-1.1-3.79-3.18-7.38-4.21-11.19-2.31-8.59-.03-20.4,1.28-29.25.27-1.8,1.22-.78,2.51-.69.36.02.73-.01,1.1,0,3.83.14,8.1-.57,11.9-.18,1.45.15,1.22.51,2.03,1.17,4.09,3.35,9.28,3.93,13.69.74.52-.38,1.77-1.77,2.17-1.86.41-.09,3.87-.13,4.05-.02.07.05.52,1.2.76,1.53,1.77,2.41,4.65,3.76,7.52,4.24-.07,1.26.41,2.49.09,3.75-2.41.84-4.78,1.76-7.05,2.93-.9.46-1.82,1.26-2.77,1.72-3.57,1.75-6.94,1.83-10.59.3-4.16-1.75-7.05-5.68-11.49-7.1-4.29-1.37-7.14-.14-11.21.13-.42.03-.96-.24-1.46,0-1.26,6.94-2.74,14.44-.97,21.42,1.36,5.35,4.61,10.16,5.34,15.74.58,4.41.75,9.95.94,14.46.18,4.11.07,8.24.3,12.34,5.14,3.37,12.33,3.9,18.37,3.71,3.43-.11,8.75-.62,12-1.64.39-.12,3.39-1.56,3.51-1.71.39-.48.05-1.77.41-2.34.29-9.26-.51-21.98,2.75-30.63.34-.92.8-1.62,1.1-2.38,2.45-6.21,3.72-10.66,3.29-17.51-.12-1.87-2.47-12.98-2-13.47.06-.06,1.39-.2,1.64-.19.05,3.9,1.47,7.6,1.83,11.47.59,6.43.25,12.84-2.53,18.74l-.95,1.53c.26.36-.78,2-.92,2.38ZM198.84,93.71c-.14.47-1.16.78-1.62.94-3.76,1.38-7.54,1.67-11.52,1.75-3.38.07-6.76-.06-10.07-.73-1.25-.25-2.69-.55-3.84-1.1-.25-.12-.96-.48-1.1-.64-.38-.46-.15-4.53-.18-5.51-.02-.56-.17-1.1-.19-1.74-.04-1.46.03-2.94,0-4.4-.16-2.32-.37-4.65-.55-6.97-.04-.53-.18-1.55-.18-1.93v-3.48c0-.32-.29-2.24-.37-2.66-.01-.06.01-.12,0-.18h0c-.03-.05-.13-.17-.18-.37-1.08-4.83-3.94-9.22-5.17-13.98-1.43-5.49-.26-11.01.27-16.52.24-1.12,1.85-1.06,2.71-1.23,2.29-.45,3.16-.5,5.49,0,6.53,1.39,9,7.48,16.03,8.6,6.2.99,8.2-1.4,13.07-3.83,1.16-.58,2.38-1.12,3.66-1.47.7,3.35,1.31,6.94,1.11,10.37-.43,7.42-5,12.9-6.03,20.01-.62,4.25-.97,9.6-1.13,13.91-.14,3.72.17,7.45-.21,11.16ZM224.5,63.2c-.11.15-.18.3-.37.37.04.36-.32.47-.37.55-1.4,2.73-3.52,4.62-5.98,6.39-3.1,2.22-6.46,3.27-10.04,4.43-.38.05-.23-.01-.27-.27-.11-.75.15-1.31.18-1.93.03-.63-.16-2.32.23-2.71,8.78-2.01,16.47-9.95,15.69-19.39-.26-3.17-2.46-7.03-5.3-8.53-1.47-.78-3.12-.94-4.74-1.12-.16-.59-.13-1.23-.2-1.82-.09-.73-.31-1.42-.18-2.2,3.7-.26,6.53,1.09,9.34,3.3,6.64,5.23,6.74,16.34,2.01,22.93Z"/>
      <path class="cls-7" d="M237.44,61.47v-.19c.12.06.12.13,0,.19Z"/>
      <path class="cls-3" d="M137.56,17.29c-.64.53-.78,1.12-1.17,1.81,0,.24-.02.49,0,.73.25,2.88,3.63,4.58,5.73,2.25,2.71-3-1.26-7.49-4.55-4.79ZM140.7,20.67c-.72.84-1.52.69-2.12-.17-.65-.94-.18-2.13.94-2.23,1.27-.11,1.99,1.45,1.18,2.4Z"/>
      <path class="cls-3" d="M213.38,1.23c-2.85,3.58,1.96,7.46,4.75,4.43,2.87-3.13-1.94-7.94-4.75-4.43ZM216.89,3.52c-.09.93-.81,1.28-1.66,1.02-.73-.22-.82-.58-.78-1.35.08-1.6,2.64-1.68,2.44.32Z"/>
      <path class="cls-3" d="M147.87,9.49c-.26-.65-1.02-1.19-1.75-1.09-1.18.16-1.76,1.46-1.22,2.51.83,1.61,3.78.61,2.97-1.41ZM146.4,10.47c-.42.04-.44-.73-.24-.86.63-.4.99.79.24.86Z"/>
      <path class="cls-5" d="M202.02,40.86c-.07-.58-.44-1.07-.18-1.83-5.1,2.55-7.2,5.05-13.7,4.01-7.37-1.18-9.96-7.55-16.81-9-2.31,6.58-3.13,14.09-1.45,20.92,1.13,4.56,3.05,8.28,3.72,13.16,1.03,7.53.97,16.84,1.18,24.53.05,1.63-.05,3.27,0,4.9,3.47.71,7.01.84,10.55.77-.09-.74,1.12-.25,1.6-.41.27-.1.31-.52.65-.7.53-.28,2.21-.39,3.02-.63,1.56-.47,3.68-1.64,4.17-3.31.49-1.69.79-5.28.93-7.13.42-5.79-.02-11.9.79-17.63.67-4.72,3.58-8.66,4.82-13.21,1.29-4.72,1.32-9.6.7-14.43ZM189.37,57.06c1.54,1.33-.02,3.44-1.92,2.49-1.96-.97.04-4.12,1.92-2.49ZM178.31,62.41c-2.01,1.04-3.53-2.91-.71-3,1.43-.04,2.38,2.13.71,3ZM177.02,48.68c1.41,1.02-.31,3.7-2.35,2.44-2.08-1.29.68-3.64,2.35-2.44ZM175.06,75.85c.11-.2,1-1.37,1.13-1.46.15-.11,1.39-.55,1.62-.59,4.34-.76,6.63,5.27,3.11,7.52-3.9,2.51-7.87-1.58-5.85-5.47ZM188.1,91.59c-3.75,4.42-10.64-1.43-6.7-5.94.67-.76,1.92-1.59,2.94-1.68,4.15-.41,6.36,4.57,3.77,7.62ZM192.33,71.82c-1.04,1.44-2.96,2.32-4.69,1.64-2.03-.8-3.16-2.81-2.86-4.97.18-1.33,1.85-3.1,3.2-3.33,4-.69,6.78,3.28,4.36,6.66Z"/>
      <path class="cls-4" d="M210.28,12.92c-1.07-6.36-10.97-8.03-15.29-3.58-.64.66-1.23,2.04-2.26,2.44-.62.25-4.85.36-4.92-.13-.11-.7.68-1.16.15-2.42-1.74-4.14-8.32-5.14-11.83-2.91-2.85,1.81-3.86,4.89-3.66,8.14-.93-.17-2.34.56-3.15-.02-.49-.35-.24-1-.35-1.57-.21-1.08-.58-1.41-1.55-1.91-3.96-2.05-8.84.42-10.12,4.54-.46,1.47-.32,2.45-.19,3.94,1.21.02,2.44-.04,3.65,0l3.18-1.52c4.01.3,7.68.32,11.59-.59.68-.16,1.29-.59,2.11-.38,0,.51.02,1.25.19,1.73.52,1.45,2.21,2.86,3.45,3.65-.1-.58-.1-1.4-.28-1.93-.09-.26-.8-1.23-1.06-1.72-.23-.43-.85-1.45-.96-1.83-.08-.28.02-.34.29-.29.42.08,2.4,2.12,2.97,2.5,3.67.66,4.79.51,8.19-.92,2.74-1.16,3.51-1.49,6.58-1.96.55-.08,1.07-.34,1.63-.38.58-.05,3.68.04,3.93.38.21.29-.37.54-.38.57-.58,2.13-.26,4.34.96,6.14.22-.51.16-1.12.77-1.34-.22-.31-.7-2.05-.72-2.44-.01-.25.26-2.26.34-2.35.26-.3.34.08.43.25.7,1.27,1.02,3.38,2.78,3.74,1.16.24,2.58-.54,2.75-1.77.11-.79-.29-2.07-.21-2.47.03-.17,1.02-.48,1.16-1.19.15-.78-.06-1.63-.19-2.39ZM162.9,14.95c-.37.25-.76.9-1.11,1-3.43,1.01-1.78-2.94.27-3.37.81-.17,1.84-.08,2.33.65.59.89-.88,1.29-1.5,1.71ZM180.32,9.14c-.06.2-2.61,2.94-2.86,3.1-1.07.68-2.21-.07-2.09-1.31.11-1.16,1.67-2.91,2.82-3.15.86-.18,2.42.35,2.14,1.35ZM200.31,11.68c-.79.7-1.66,1.39-2.74,1.2-2.89-.5.73-4.61,2.69-3.74.05.02.07.25.19.33,1.46.92,1.09,1.12-.14,2.21Z"/>
      <path class="cls-4" d="M171.33,34.03c-2.31,6.58-3.13,14.09-1.44,20.92,1.13,4.56,3.05,8.28,3.72,13.16,1.03,7.53.97,16.84,1.18,24.53.05,1.63-.05,3.27,0,4.9-1.31-.27-2.82-.58-4.03-1.15-.04-.99.05-1.99,0-2.98-.41-8.82.07-18.32-1.37-27.03-.82-4.99-3.96-9.16-4.91-14.09-.72-3.73-.53-8.25-.05-12.03.26-2.1.86-4.15,1.15-6.24,2.4-.47,3.31-.52,5.76,0Z"/>
      <path class="cls-4" d="M175.55,23.09c2.28,5.9,9.78,7.51,15.35,5.86,1.81-.54,3.98-1.92,5.56-2.98.93.11.8,1.34.78,2.02-.07,1.88-.19,4.26-.41,6.11-.05.43-.17.94-.44,1.28-.93,1.15-7.09,2.82-8.66,2.87-.59.02-1.32-.49-1.81,0-4.37-1.83-7.39-5.94-12.05-7.43-4.5-1.43-7.48-.14-11.75.14-.15-1.49.78-2.88.94-4.34.12-1.08-.04-2.25.02-3.34,4.02.15,8.5-.6,12.47-.19Z"/>
      <path class="cls-6" d="M201.84,39.02c1.21-.61,2.5-1.17,3.84-1.54.73,3.5,1.37,7.26,1.16,10.85-.45,7.76-5.24,13.49-6.32,20.93-.65,4.45-1.01,10.04-1.18,14.55-.14,3.89.18,7.79-.22,11.68-.15.49-1.22.81-1.7.99-3.94,1.45-7.9,1.75-12.08,1.83-.09-.74,1.12-.25,1.6-.41.28-.1.31-.52.65-.7.53-.28,2.21-.38,3.02-.63,1.56-.47,3.68-1.64,4.17-3.31s.79-5.28.93-7.13c.42-5.79-.02-11.9.79-17.63.67-4.72,3.58-8.66,4.83-13.21s1.32-9.6.7-14.43c-.07-.58-.44-1.07-.18-1.83Z"/>
      <path class="cls-4" d="M161.92,23.28c.07.09.12.34.19.38-.59-.09-.31.14-.38.48-.41,2.26-.75,4.55-1.16,6.81-1.32,7.26-2.87,15.11-1.01,22.41,1.43,5.6,4.83,10.63,5.6,16.47.61,4.62.79,10.41.99,15.13.19,4.3.07,8.62.31,12.92,5.38,3.53,12.93,4.08,19.25,3.88l.2,2.87c.33-.16.89.19.96.2-3.81.25-7.98-.07-11.78-.6-1.73-.24-3.32-.88-5.11-.94l-3.22-1.32c-.18-.1-.4.17-.42.16-.45-.05-.88-.21-1.34-.19-.31-.49-.49-.37-.57-1.25-.47-5.03.02-11.11-.19-16.32-.21-5.48-.36-12.88-1.88-18.08-1.16-3.96-3.33-7.72-4.41-11.71-2.43-8.98-.04-21.34,1.34-30.6.28-1.89,1.28-.81,2.64-.72Z"/>
      <path class="cls-8" d="M175.55,23.09c1.52.16,1.27.53,2.13,1.23,4.29,3.5,9.73,4.11,14.36.77.55-.4,1.86-1.85,2.27-1.95s4.06-.13,4.24-.02c.08.05.54,1.25.8,1.6,1.86,2.52,4.87,3.93,7.88,4.44-.07,1.31.43,2.61.09,3.92-2.53.88-5.01,1.84-7.4,3.06-.33-.27-.61-.45-.73-.91-.66-2.49-.15-5.92-.9-8.5-.28-.96-.63-1.42-1.7-1.15-.21.05-.11.38-.12.39-1.59,1.06-3.75,2.44-5.56,2.98-5.57,1.66-13.07.05-15.35-5.86Z"/>
      <path class="cls-4" d="M223.91,39.6c.02,1.72,1.23,3.39,1.82,4.99,1.97,5.3,2.04,10.33-.28,15.54-1.24,2.78-4.41,6.76-6.82,8.63-2.93,2.27-7.02,3.16-10.26,4.8.03-.66-.17-2.43.24-2.83,9.2-2.11,17.27-10.41,16.46-20.29-.27-3.32-2.58-7.36-5.56-8.93-.11-.75.43-.12.83-.22s.64-.55.43-.93c-.47-.88-5.28-2.1-6.44-1.92-.09-.76-.32-1.49-.19-2.3,3.88-.27,6.85,1.14,9.79,3.46Z"/>
      <path class="cls-5" d="M165.57,34.03c-.29,2.09-.89,4.14-1.15,6.24-.47,3.78-.67,8.3.05,12.03.96,4.92,4.09,9.09,4.91,14.09,1.44,8.71.97,18.21,1.37,27.03.05.99-.05,1.99,0,2.98-.26-.12-1.01-.51-1.15-.67-.4-.48-.15-4.74-.19-5.76-.02-.59-.18-1.15-.2-1.82.28-1.14.28-2.77.21-3.96-.02-.34-.2-.6-.21-.65-.17-2.43-.39-4.86-.58-7.29.32-.2.19-.73.2-1.05.03-2.46.03-5.08-.77-7.39-.01-.06.01-.13,0-.19l-.19-.38c-1.13-5.06-4.13-9.64-5.42-14.63-1.49-5.74-.27-11.52.28-17.28.26-1.17,1.94-1.11,2.84-1.29Z"/>
      <path class="cls-8" d="M203.95,98.13c.06.92.07,3.08-.23,3.9s-1.96.48-2.5.57c-3.69.61-10.92,2.55-14.35,2.25-.07,0-.62-.36-.96-.2l-.2-2.87c3.6-.11,9.17-.65,12.58-1.72.41-.13,3.55-1.63,3.68-1.79.41-.5.05-1.85.43-2.44,1.86-.68,1.23.68,1.34,1.84.02.24.2.44.2.46Z"/>
      <path class="cls-7" d="M206.44,61.28c2.57-6.49,3.9-11.15,3.45-18.32-.12-1.95-2.6-13.58-2.1-14.1.06-.06,1.45-.21,1.72-.2.05,4.08,1.54,7.96,1.92,12,.62,6.73.26,13.44-2.65,19.61l-.99,1.6s-.62.11-.38-.77l-.96.19Z"/>
      <path class="cls-7" d="M205.29,63.78c.66,0,.58,1.23,1.54.58-2.2,6.21-2.42,16.58-2.69,23.31-.14,3.48-.1,6.99-.18,10.47,0-.03-.18-.22-.2-.46-.11-1.16.53-2.52-1.34-1.84.31-9.69-.53-22.99,2.88-32.05Z"/>
      <path class="cls-7" d="M197.04,16.18c.12.47-1.37.85-1.68.91-.45.1-.93-.04-1.27.04-.2.05-.11.38-.13.39-.07.04-.43-.09-.54.03-.06.07-.25,1.36-.42,1.7-.61,1.22-4.22,4-5.55,4.33-2.41.6-4.18-.02-6.16-1.26-.1-.58-.1-1.4-.28-1.93-.09-.26-.8-1.23-1.06-1.72.77.13,1.54.25,2.3.38,3.67.66,4.79.51,8.19-.92,2.74-1.15,3.51-1.49,6.58-1.95Z"/>
      <path class="cls-8" d="M225.45,63.59c-.11.4.18.36.19.38.04.38-.34.49-.39.58-1.47,2.85-3.68,4.84-6.27,6.68-3.24,2.32-6.76,3.42-10.52,4.64-.4.05-.25-.02-.29-.28-.11-.79.16-1.37.2-2.02,3.23-1.64,7.33-2.53,10.26-4.8,2.4-1.87,5.58-5.86,6.82-8.64,2.32-5.2,2.25-10.24.28-15.54-.59-1.6-1.8-3.27-1.82-4.99,6.96,5.47,7.07,17.1,2.11,23.99h-.57Z"/>
      <path class="cls-7" d="M196.47,25.97s-.09-.33.12-.39c1.07-.27,1.42.2,1.7,1.15.76,2.58.24,6.01.9,8.5.12.45.39.64.73.91-.94.48-1.91,1.31-2.9,1.8-3.74,1.83-7.27,1.92-11.11.31.49-.48,1.23.03,1.81,0,1.57-.05,7.73-1.72,8.66-2.87.28-.34.39-.86.44-1.28.23-1.85.35-4.23.41-6.11.02-.69.15-1.92-.78-2.02Z"/>
      <path class="cls-7" d="M175.55,17.34c.04.63-.04,1.55.57,1.86v.25c-4.19.75-10.92.14-15.34,0l3.18-1.52c4.01.3,7.68.32,11.59-.59Z"/>
      <path class="cls-8" d="M197.04,16.18c.55-.08,1.07-.33,1.63-.38s3.68.04,3.93.38c.22.29-.37.54-.38.57-.57.03-1.3.13-1.8.41-.85.47-1.37,1.86-1.93,2.1-.65.28-1.98.2-2.72.18-.38,0-.66-.19-.85-.2l-.96-1.73s-.08-.34.13-.39c.34-.09.82.06,1.27-.04.31-.07,1.8-.44,1.68-.91Z"/>
      <path class="cls-8" d="M210.86,22.9c-.04.05-.01.29-.2.47-2.47,2.38-5.48,2.47-7.48-.47.23-.5.16-1.12.77-1.34-.22-.31-.7-2.05-.72-2.44-.01-.25.26-2.27.34-2.36.26-.3.34.09.43.25.7,1.27,1.01,3.37,2.78,3.74,1.16.24,2.57-.54,2.75-1.77.1-.79-.3-2.07-.22-2.47.04-.17,1.03-.48,1.16-1.19.15-.78-.06-1.63-.18-2.39.49-.11.39.24.47.57.53,2.06,1.11,1.67,1.58,2.83,1.04,2.56.19,4.68-1.48,6.57Z"/>
      <path class="cls-7" d="M214.31,38.44c1.16-.18,5.97,1.04,6.44,1.92.21.38-.06.84-.43.93s-.93-.53-.83.22c-1.54-.81-3.27-.98-4.97-1.17-.17-.62-.13-1.29-.21-1.9Z"/>
      <path class="cls-7" d="M163.07,23.28c-.06,1.09.1,2.26-.02,3.34-.16,1.46-1.09,2.85-.94,4.34-.44.03-1.01-.25-1.54,0,.41-2.26.75-4.54,1.16-6.81.06-.34-.21-.57.38-.48-.56,2.27,1.27,1.14.33.05-.07-.08-.29-.02-.33-.05-.07-.05-.12-.29-.19-.38.38.02.77-.01,1.15,0Z"/>
      <path class="cls-8" d="M206.44,61.28l.96-.19c-.24.88.35.73.38.77.28.37-.82,2.09-.96,2.49-.95.66-.87-.58-1.54-.58.36-.96.84-1.7,1.15-2.49Z"/>
      <path class="cls-8" d="M175.55,17.34c.67-.16,1.29-.59,2.11-.38,0,.52.02,1.25.19,1.73-.35.61-1.1.66-1.73.77v-.25c-.61-.31-.53-1.22-.58-1.86Z"/>
      <path class="cls-8" d="M168.64,76.25c-.04-.56-.19-1.62-.19-2.01v-3.65c0-.33-.3-2.34-.38-2.78.8,2.31.8,4.94.77,7.39,0,.32.12.85-.2,1.05Z"/>
      <path class="cls-8" d="M169.22,88.15c-.04-1.53.03-3.07,0-4.61,0,.05.18.31.21.65.08,1.19.07,2.82-.21,3.96Z"/>
      <path class="cls-7" d="M226.02,63.58c-.11.15-.19.31-.38.38,0-.02-.29.01-.19-.38h.57Z"/>
      <path class="cls-8" d="M168.06,67.61s-.14-.15-.19-.38l.19.38Z"/>
      <path class="cls-4" d="M139.42,17.38c2-.18,3.14,2.28,1.86,3.78-1.13,1.32-2.4,1.08-3.35-.27-1.03-1.48-.28-3.35,1.48-3.51Z"/>
      <path class="cls-4" d="M217.45,3.6c-.45.02-.65.44-1.04.59-.61.24-1.59-.06-1.45.94-1.1-.33-1.22-.86-1.17-2.02.12-2.4,3.95-2.52,3.66.48Z"/>
      <path class="cls-7" d="M217.45,3.6c-.14,1.39-1.22,1.91-2.49,1.54-.13-1,.84-.7,1.45-.94.39-.15.59-.57,1.04-.59Z"/>
      <path class="cls-4" d="M146.02,9.3c1.09-.69,1.71,1.37.42,1.48-.73.06-.75-1.27-.42-1.48Z"/>
      <path class="cls-3" d="M184.34,83.97c-1.02.1-2.27.92-2.94,1.68-3.94,4.5,2.95,10.35,6.7,5.94,2.59-3.05.38-8.03-3.77-7.62ZM185.34,90.17c-2.26.73-3.42-2.83-1.22-3.33,2.43-.55,3.27,2.67,1.22,3.33Z"/>
      <path class="cls-3" d="M187.97,65.17c-1.35.23-3.01,2-3.2,3.33-.29,2.16.83,4.17,2.86,4.97,1.73.68,3.65-.2,4.69-1.64,2.43-3.38-.36-7.35-4.36-6.66ZM189.61,70.45c-1.88.95-2.96-2.09-1.26-2.6,2.02-.6,2.86,1.79,1.26,2.6Z"/>
      <path class="cls-3" d="M177.8,73.8c-.23.04-1.47.48-1.62.59-.12.09-1.02,1.26-1.13,1.46-2.02,3.89,1.96,7.98,5.85,5.47,3.52-2.26,1.22-8.28-3.11-7.52ZM179.52,78.87c-1.29,1.18-3.4-.17-2.24-1.77,1.3-1.81,3.73.4,2.24,1.77Z"/>
      <path class="cls-4" d="M177.02,48.68c1.41,1.02-.31,3.7-2.35,2.44s.68-3.64,2.35-2.44Z"/>
      <path class="cls-4" d="M177.6,59.41c1.43-.04,2.38,2.13.71,3-2.01,1.04-3.53-2.91-.71-3Z"/>
      <path class="cls-3" d="M189.37,57.06c0,.13,0,.26,0,.38-.83-.54-2.01.08-1.93,1.04,0,.05.64.33.59.69-.04.02.1.59-.58.38-1.96-.97.04-4.12,1.92-2.49Z"/>
      <path class="cls-6" d="M187.45,59.55c.67.21.54-.36.58-.38.07-.04.56.04.82-.04.7-.22.53-1.09.53-1.69,0-.13,0-.26,0-.38,1.54,1.33-.02,3.44-1.92,2.49Z"/>
      <path class="cls-3" d="M178.18,7.78c.86-.18,2.42.34,2.13,1.35-.06.2-2.6,2.94-2.86,3.1-1.07.68-2.21-.07-2.09-1.31.11-1.17,1.67-2.91,2.82-3.15Z"/>
      <path class="cls-3" d="M200.26,9.14c.05.02.07.25.19.33,1.46.92,1.09,1.12-.14,2.21-.79.7-1.66,1.39-2.74,1.2-2.89-.5.73-4.61,2.69-3.74Z"/>
      <path class="cls-3" d="M162.06,12.58c.81-.17,1.84-.09,2.33.65.59.89-.88,1.29-1.5,1.71-.37.25-.76.9-1.11,1-3.42,1.01-1.77-2.94.27-3.37Z"/>
      <path class="cls-8" d="M182.26,19.06c-.76-.14-1.54-.25-2.3-.38-.23-.43-.85-1.45-.96-1.83-.08-.28.02-.33.29-.29.42.08,2.4,2.12,2.97,2.5Z"/>
      <path class="cls-8" d="M162.12,23.67s.26-.04.33.05c.94,1.1-.89,2.23-.33-.05Z"/>
      <path class="cls-4" d="M184.13,86.84c2.42-.54,3.27,2.67,1.22,3.33-2.26.73-3.42-2.83-1.22-3.33Z"/>
      <path class="cls-4" d="M188.35,67.85c2.02-.6,2.86,1.79,1.26,2.6-1.88.95-2.96-2.09-1.26-2.6Z"/>
      <path class="cls-4" d="M179.52,78.87c-1.29,1.18-3.4-.17-2.25-1.77,1.3-1.81,3.73.41,2.25,1.77Z"/>
      <path class="cls-7" d="M189.37,57.44c0,.6.17,1.47-.53,1.69-.26.08-.74,0-.82.04.06-.36-.58-.64-.59-.69-.08-.96,1.1-1.58,1.93-1.04Z"/>
    </g>
  </g>
</svg>